<svg width="157" height="167" viewBox="0 0 157 167" fill="none" xmlns="http://www.w3.org/2000/svg">
<g opacity="0.3" clip-path="url(#clip0_85_6548)" filter="url(#filter0_f_85_6548)">
<mask id="mask0_85_6548" style="mask-type:luminance" maskUnits="userSpaceOnUse" x="110" y="21" width="5" height="112">
<path d="M114.99 21.7906C114.892 25.0477 114.766 29.3891 114.668 32.6463C114.617 34.2907 114.551 36.4772 114.505 38.1125C114.407 41.4148 114.273 45.8195 114.176 49.1218C114.129 50.7797 114.06 52.9979 114.014 54.6558C113.744 63.9348 113.464 73.2094 113.194 82.4884C113.097 85.8359 112.959 90.2948 112.862 93.6422C112.812 95.3092 112.747 97.5409 112.697 99.2079C112.595 102.542 112.466 106.983 112.369 110.308C112.323 111.965 112.258 114.174 112.202 115.828C112.105 119.13 111.975 123.526 111.873 126.815C111.826 128.45 112.424 130.798 111.715 132.272C111.76 130.871 111.419 129.039 110.697 127.091L113.674 26.4124C114.513 24.5525 114.945 22.9337 114.977 21.7953L114.99 21.7906Z" fill="white"/>
</mask>
<g mask="url(#mask0_85_6548)">
<path d="M110.692 127.1L113.674 26.4124C113.674 26.4124 113.678 26.4033 113.683 26.3942L110.693 127.122C110.693 127.122 110.693 127.122 110.688 127.109" fill="#85C8FF"/>
<path d="M110.702 127.127L113.683 26.3943C113.683 26.3943 113.7 26.3579 113.705 26.3488L110.721 127.181C110.721 127.181 110.706 127.14 110.702 127.127Z" fill="#85C7FF"/>
<path d="M110.72 127.18L113.709 26.3396C113.709 26.3396 113.726 26.3032 113.73 26.2941L110.739 127.234C110.739 127.234 110.725 127.194 110.72 127.18Z" fill="#85C6FF"/>
<path d="M110.744 127.225L113.731 26.2942C113.731 26.2942 113.748 26.2578 113.752 26.2487L110.758 127.288C110.758 127.288 110.744 127.248 110.739 127.234" fill="#84C5FF"/>
<path d="M110.763 127.279L113.757 26.2395C113.757 26.2395 113.774 26.2031 113.779 26.194L110.782 127.333C110.782 127.333 110.767 127.293 110.763 127.279Z" fill="#84C4FF"/>
<path d="M110.782 127.333L113.77 26.1897C113.77 26.1897 113.787 26.1533 113.792 26.1442L110.787 127.392C110.787 127.392 110.773 127.351 110.768 127.338" fill="#84C4FF"/>
<path d="M110.791 127.383L113.796 26.1351C113.796 26.1351 113.813 26.0987 113.818 26.0896L110.81 127.436C110.81 127.436 110.796 127.396 110.791 127.383Z" fill="#84C3FF"/>
<path d="M110.81 127.436L113.818 26.0896C113.818 26.0896 113.835 26.0532 113.84 26.0441L110.839 127.495C110.839 127.495 110.824 127.454 110.82 127.441" fill="#84C2FF"/>
<path d="M110.829 127.49L113.84 26.0441C113.84 26.0441 113.857 26.0077 113.862 25.9986L110.853 127.558C110.853 127.558 110.839 127.517 110.834 127.504" fill="#84C1FF"/>
<path d="M110.848 127.544L113.866 25.9895C113.866 25.9895 113.884 25.9531 113.888 25.944L110.877 127.602C110.877 127.602 110.862 127.562 110.858 127.549" fill="#83C1FF"/>
<path d="M110.867 127.598L113.879 25.9396C113.879 25.9396 113.896 25.9032 113.901 25.8941L110.886 127.652C110.886 127.652 110.872 127.612 110.867 127.598Z" fill="#83C0FF"/>
<path d="M110.886 127.652L113.901 25.8941C113.901 25.8941 113.918 25.8577 113.923 25.8486L110.905 127.706C110.905 127.706 110.891 127.666 110.886 127.652Z" fill="#83BFFF"/>
<path d="M110.905 127.706L113.927 25.8395C113.927 25.8395 113.945 25.8031 113.954 25.7849L110.933 127.764C110.933 127.764 110.919 127.724 110.915 127.71" fill="#83BEFF"/>
<path d="M110.924 127.76L113.944 25.7805C113.944 25.7805 113.962 25.7442 113.971 25.726L110.943 127.814C110.943 127.814 110.929 127.773 110.924 127.76Z" fill="#83BDFF"/>
<path d="M110.943 127.814L113.966 25.7351C113.966 25.7351 113.984 25.6987 113.993 25.6805L113.851 30.451L113.71 35.3119L113.561 40.2586L113.41 45.2822L113.263 50.3644L113.113 55.5008L112.964 60.6824L112.806 65.9047L112.649 71.1496L112.497 76.408L112.34 81.6755L112.183 86.943L112.03 92.2013L111.877 97.4371L111.728 102.641L111.574 107.809L111.424 112.923L111.277 117.983L111.13 122.975L110.985 127.89C110.985 127.89 110.971 127.849 110.966 127.836" fill="#82BDFF"/>
<path d="M110.957 127.877L113.992 25.6805C113.992 25.6805 114.01 25.6441 114.019 25.6259L110.985 127.935C110.985 127.935 110.971 127.895 110.967 127.881" fill="#82BCFF"/>
<path d="M110.977 127.931L114.01 25.6215C114.01 25.6215 114.027 25.5851 114.036 25.5669L111.005 127.989C111.005 127.989 110.991 127.948 110.986 127.935" fill="#82BBFF"/>
<path d="M111 127.998L114.036 25.5669C114.036 25.5669 114.053 25.5305 114.062 25.5123L111.023 128.043C111.023 128.043 111.009 128.002 111.004 127.989" fill="#82BAFF"/>
<path d="M111.019 128.052L114.058 25.5214C114.058 25.5214 114.075 25.485 114.084 25.4668L111.038 128.106C111.038 128.106 111.024 128.065 111.019 128.052Z" fill="#82BAFF"/>
<path d="M111.038 128.106L114.075 25.4624C114.075 25.4624 114.092 25.426 114.101 25.4078L111.057 128.16C111.057 128.16 111.043 128.119 111.038 128.106Z" fill="#82B9FF"/>
<path d="M111.053 128.169L114.101 25.4078C114.101 25.4078 114.119 25.3714 114.127 25.3532L111.076 128.213C111.076 128.213 111.062 128.173 111.057 128.16" fill="#81B8FF"/>
<path d="M111.071 128.223L114.114 25.3579C114.114 25.3579 114.131 25.3215 114.14 25.3033L111.09 128.276C111.09 128.276 111.076 128.236 111.071 128.223Z" fill="#81B7FF"/>
<path d="M111.09 128.276L114.14 25.3034C114.14 25.3034 114.158 25.267 114.167 25.2488L111.114 128.344C111.114 128.344 111.1 128.303 111.1 128.281" fill="#81B6FF"/>
<path d="M111.105 128.339L114.157 25.2444C114.157 25.2444 114.175 25.208 114.184 25.1898L111.124 128.416C111.124 128.416 111.11 128.376 111.11 128.353" fill="#81B6FF"/>
<path d="M111.129 128.407L114.184 25.1898C114.184 25.1898 114.201 25.1534 114.21 25.1352L111.148 128.483C111.148 128.483 111.134 128.443 111.133 128.42" fill="#81B5FF"/>
<path d="M111.143 128.47L114.205 25.1217C114.205 25.1217 114.223 25.0853 114.231 25.0671L111.167 128.537C111.167 128.537 111.153 128.497 111.152 128.474" fill="#81B4FF"/>
<path d="M111.158 128.533L111.306 123.541L111.457 118.472L111.611 113.349L111.77 108.172L111.927 102.95L112.08 97.6913L112.237 92.4013L112.388 87.0977L112.545 81.7851L112.701 76.4725L112.857 71.1599L113.014 65.8698L113.171 60.6023L113.324 55.3665L113.482 50.1668L113.636 45.0212L113.787 39.9299L113.938 34.9064L114.087 29.9596L114.232 25.0897C114.232 25.0897 114.25 25.0533 114.258 25.0351L111.191 128.627C111.191 128.627 111.177 128.587 111.177 128.564" fill="#80B3FF"/>
<path d="M111.181 128.6L114.249 25.0081C114.249 25.0081 114.266 24.9718 114.275 24.9536L111.205 128.668C111.205 128.668 111.191 128.627 111.191 128.605" fill="#80B3FF"/>
<path d="M111.196 128.663L114.266 24.9492C114.266 24.9492 114.284 24.9128 114.292 24.8946L111.216 128.74C111.216 128.74 111.201 128.699 111.201 128.677" fill="#80B2FF"/>
<path d="M111.211 128.726L114.296 24.8855C114.296 24.8855 114.314 24.8491 114.323 24.8309L111.243 128.798C111.243 128.798 111.229 128.757 111.229 128.735" fill="#80B1FF"/>
<path d="M111.234 128.793L114.314 24.8265C114.314 24.8265 114.331 24.7901 114.34 24.7719L111.258 128.861C111.258 128.861 111.244 128.82 111.243 128.798" fill="#80B0FF"/>
<path d="M111.249 128.856L114.331 24.7676C114.331 24.7676 114.353 24.7221 114.362 24.7039L111.268 128.933C111.268 128.933 111.259 128.883 111.249 128.856Z" fill="#7FB0FF"/>
<path d="M111.268 128.933L114.361 24.7038C114.361 24.7038 114.383 24.6583 114.392 24.6401L111.296 129.014C111.296 129.014 111.287 128.964 111.277 128.937" fill="#7FAFFF"/>
<path d="M111.288 129.009L114.383 24.6358C114.383 24.6358 114.405 24.5903 114.414 24.5721L111.316 129.09C111.316 129.09 111.306 129.041 111.297 129.014" fill="#7FAEFF"/>
<path d="M111.307 129.086L114.405 24.5677C114.405 24.5677 114.427 24.5222 114.436 24.504L111.335 129.167C111.335 129.167 111.326 129.117 111.316 129.09" fill="#7FADFF"/>
<path d="M111.326 129.162L114.426 24.4997C114.426 24.4997 114.448 24.4542 114.457 24.436L111.346 129.239C111.346 129.239 111.336 129.189 111.326 129.162Z" fill="#7FACFF"/>
<path d="M111.345 129.239L114.448 24.4316C114.448 24.4316 114.47 24.3861 114.479 24.3679L111.365 129.315C111.365 129.315 111.355 129.266 111.345 129.239Z" fill="#7FACFF"/>
<path d="M111.36 129.302L114.469 24.3635C114.469 24.3635 114.491 24.318 114.5 24.2998L111.388 129.383C111.388 129.383 111.379 129.333 111.369 129.306" fill="#7EABFF"/>
<path d="M111.379 129.378L114.491 24.2954C114.491 24.2954 114.513 24.2499 114.517 24.2183L111.394 129.464C111.394 129.464 111.384 129.414 111.379 129.378Z" fill="#7EAAFF"/>
<path d="M111.394 129.464L114.517 24.2183C114.517 24.2183 114.539 24.1728 114.543 24.1411L114.396 29.1556L114.245 34.2469L114.091 39.3924L113.933 44.5922L113.775 49.8371L113.619 55.1271L113.458 60.4488L113.293 65.8022L113.133 71.1691L112.978 76.5495L112.819 81.9389L112.659 87.3283L112.504 92.7087L112.344 98.0755L112.184 103.42L112.028 108.732L111.866 114.009L111.713 119.245L111.564 124.426L111.409 129.549C111.409 129.549 111.395 129.486 111.394 129.464Z" fill="#7EA9FF"/>
<path d="M111.418 129.554L114.543 24.1411C114.543 24.1411 114.565 24.0956 114.569 24.0639L111.442 129.644C111.442 129.644 111.428 129.581 111.427 129.558" fill="#7EA9FF"/>
<path d="M111.433 129.639L114.569 24.0639C114.569 24.0639 114.591 24.0184 114.595 23.9868L111.457 129.729C111.457 129.729 111.443 129.666 111.442 129.644" fill="#7EA8FF"/>
<path d="M111.448 129.725L114.585 23.9824C114.585 23.9824 114.607 23.9369 114.611 23.9052L111.472 129.815C111.472 129.815 111.467 129.756 111.457 129.729" fill="#7EA7FF"/>
<path d="M111.472 129.815L114.611 23.9052C114.611 23.9052 114.633 23.8597 114.637 23.8281L111.491 129.891C111.491 129.891 111.486 129.833 111.476 129.806" fill="#7DA6FF"/>
<path d="M111.487 129.9L114.633 23.8372C114.633 23.8372 114.655 23.7917 114.659 23.76L111.511 129.99C111.511 129.99 111.496 129.927 111.496 129.905" fill="#7DA5FF"/>
<path d="M111.502 129.986L114.65 23.7556C114.65 23.7556 114.662 23.7057 114.667 23.6741L111.512 130.081C111.512 130.081 111.498 130.018 111.497 129.995" fill="#7DA5FF"/>
<path d="M111.526 130.076L114.68 23.6693C114.68 23.6693 114.693 23.6194 114.697 23.5878L111.536 130.17C111.536 130.17 111.522 130.107 111.521 130.085" fill="#7DA4FF"/>
<path d="M111.537 130.171L114.697 23.5878C114.697 23.5878 114.71 23.538 114.714 23.5063L111.552 130.256C111.552 130.256 111.546 130.197 111.537 130.171Z" fill="#7DA3FF"/>
<path d="M111.551 130.256L114.714 23.5063C114.714 23.5063 114.726 23.4564 114.73 23.4247L111.566 130.342C111.566 130.342 111.561 130.283 111.551 130.256Z" fill="#7DA2FF"/>
<path d="M111.562 130.351L114.74 23.4291C114.74 23.4291 114.752 23.3792 114.756 23.3475L111.577 130.436C111.577 130.436 111.571 130.378 111.562 130.351Z" fill="#7CA2FF"/>
<path d="M111.577 130.436L114.752 23.3566C114.752 23.3566 114.765 23.3068 114.769 23.2751L111.592 130.544C111.592 130.544 111.578 130.481 111.582 130.45" fill="#7CA1FF"/>
<path d="M111.596 130.535L114.773 23.266C114.773 23.266 114.79 23.207 114.79 23.1844L111.607 130.63C111.607 130.63 111.592 130.567 111.596 130.535Z" fill="#7CA0FF"/>
<path d="M111.607 130.63L114.79 23.1844C114.79 23.1844 114.807 23.1255 114.807 23.1029L111.613 130.734C111.613 130.734 111.599 130.671 111.603 130.639" fill="#7C9FFF"/>
<path d="M111.618 130.725L114.807 23.1029C114.807 23.1029 114.82 23.053 114.824 23.0214L111.624 130.828C111.624 130.828 111.618 130.77 111.613 130.734" fill="#7C9EFF"/>
<path d="M111.637 130.824L114.828 23.0123C114.828 23.0123 114.841 22.9624 114.845 22.9307L111.648 130.918C111.648 130.918 111.642 130.86 111.637 130.824Z" fill="#7B9EFF"/>
<path d="M111.648 130.918L114.845 22.9307C114.845 22.9307 114.862 22.8718 114.862 22.8492L111.654 131.022C111.654 131.022 111.653 130.954 111.643 130.927" fill="#7B9DFF"/>
<path d="M111.654 131.022L114.862 22.8492C114.862 22.8492 114.87 22.7858 114.883 22.7585L111.669 131.13C111.669 131.13 111.659 131.058 111.654 131.022Z" fill="#7B9CFF"/>
<path d="M111.669 131.13L114.883 22.7585C114.883 22.7585 114.891 22.6952 114.895 22.6635L111.675 131.234C111.675 131.234 111.665 131.162 111.669 131.13Z" fill="#7B9BFF"/>
<path d="M111.676 131.234L114.895 22.6636C114.895 22.6636 114.903 22.6002 114.907 22.5685L111.686 131.329C111.686 131.329 111.685 131.261 111.68 131.225" fill="#7B9BFF"/>
<path d="M111.681 131.338L114.902 22.5776C114.902 22.5776 114.911 22.5143 114.91 22.4917L111.683 131.451C111.683 131.451 111.682 131.383 111.677 131.347" fill="#7B9AFF"/>
<path d="M111.688 131.441L114.924 22.487C114.924 22.487 114.932 22.4236 114.936 22.392L111.699 131.559C111.699 131.559 111.693 131.478 111.688 131.441Z" fill="#7A99FF"/>
<path d="M111.699 131.559L114.936 22.392C114.936 22.392 114.944 22.3286 114.953 22.2878L114.792 27.6096L114.632 32.9764L114.468 38.375L114.309 43.8096L114.151 49.2667L113.993 54.7464L113.826 60.2444L113.664 65.7558L113.506 71.2806L113.344 76.8146L113.183 82.3486L113.021 87.8826L112.859 93.4165L112.692 98.937L112.53 104.448L112.368 109.937L112.205 115.403L112.042 120.847L111.878 126.268L111.718 131.658C111.718 131.658 111.713 131.577 111.712 131.531" fill="#7A98FF"/>
<path d="M111.705 131.685L114.943 22.2835C114.943 22.2835 114.952 22.2201 114.956 22.1885L111.707 131.798C111.707 131.798 111.701 131.717 111.705 131.685Z" fill="#7A97FF"/>
<path d="M111.707 131.798L114.955 22.1885C114.955 22.1885 114.963 22.1251 114.967 22.0934L111.713 131.924C111.713 131.924 111.716 131.847 111.711 131.811" fill="#7A97FF"/>
<path d="M111.713 131.924L114.967 22.0935C114.967 22.0935 114.971 22.0167 114.979 21.9759L111.711 132.069C111.711 132.069 111.714 131.969 111.713 131.924Z" fill="#7A96FF"/>
<path d="M111.711 132.069L114.97 21.9715C114.97 21.9715 114.974 21.8947 114.982 21.8539L111.709 132.213C111.709 132.213 111.712 132.114 111.711 132.069Z" fill="#7A95FF"/>
<path d="M111.713 132.204L114.982 21.8539C114.982 21.8539 114.981 21.8087 114.99 21.7905L114.831 27.2025L114.667 32.6462L114.504 38.1125L114.342 43.6013L114.18 49.1127L114.018 54.6467L113.852 60.1897L113.686 65.7554L113.52 71.321L113.35 76.8958L113.189 82.4749L113.028 88.054L112.857 93.6287L112.692 99.1944L112.53 104.751L112.364 110.294L112.197 115.814L112.035 121.326L111.873 126.815L111.714 132.272C111.714 132.272 111.718 132.218 111.717 132.195" fill="#7994FF"/>
</g>
<mask id="mask1_85_6548" style="mask-type:luminance" maskUnits="userSpaceOnUse" x="13" y="74" width="68" height="67">
<path d="M78.2096 139.543C76.2796 137.631 73.6975 135.093 71.7675 133.182C70.7934 132.222 69.5022 130.942 68.5281 129.982C66.5799 128.061 63.9792 125.492 62.031 123.572C60.0828 121.652 57.4682 119.065 55.5062 117.127C54.523 116.162 53.2179 114.864 52.2347 113.9C50.2727 111.962 47.6537 109.384 45.6917 107.446C43.7296 105.508 41.1107 102.93 39.1486 100.992C38.1654 100.027 36.8603 98.7294 35.8771 97.765C33.9242 95.8313 31.3144 93.2577 29.3523 91.3197C27.3903 89.3817 24.8034 86.8304 22.8552 84.9102C21.8811 83.9501 20.5899 82.6699 19.6158 81.7098C17.6859 79.7984 15.1037 77.2605 13.1738 75.3491C12.9623 75.1356 13.163 74.9519 13.8484 74.8102L80.5797 140.68C79.8987 140.812 79.055 140.374 78.2096 139.543Z" fill="white"/>
</mask>
<g mask="url(#mask1_85_6548)">
<path d="M13.8439 74.8193L80.5753 140.689C80.5753 140.689 80.5257 140.699 80.503 140.699L13.7808 74.8338C13.7808 74.8338 13.8304 74.824 13.853 74.8237" fill="#7CA0FF"/>
<path d="M13.7809 74.8338L80.5166 140.694C80.5166 140.694 80.4444 140.704 80.4127 140.7L13.6817 74.8534C13.6817 74.8534 13.7448 74.8389 13.7718 74.8294" fill="#7C9FFF"/>
<path d="M13.682 74.8534L80.4086 140.709C80.4086 140.709 80.3407 140.71 80.3046 140.716L13.5919 74.8774C13.5919 74.8774 13.6459 74.8585 13.682 74.8534Z" fill="#7C9EFF"/>
<path d="M13.5918 74.8774L80.2954 140.711C80.2954 140.711 80.2276 140.712 80.1868 140.704L13.5152 74.8967C13.5152 74.8967 13.5692 74.8778 13.5918 74.8774Z" fill="#7B9EFF"/>
<path d="M13.5153 74.8967L80.1869 140.704C80.1869 140.704 80.1143 140.691 80.0826 140.687L76.7513 137.398L73.42 134.109L70.0887 130.82L66.7574 127.53L63.4261 124.241L60.0948 120.952L56.7635 117.663L53.4322 114.373L50.1009 111.084L46.7696 107.795L43.4383 104.506L40.107 101.216L36.7757 97.927L33.4444 94.6377L30.1131 91.3485L26.7818 88.0592L23.4505 84.7699L20.1192 81.4807L16.7879 78.1914L13.4566 74.9021C13.4566 74.9021 13.5062 74.8923 13.5241 74.8785" fill="#7B9DFF"/>
<path d="M13.4474 74.9203L16.7787 78.2096L20.11 81.4988L23.4413 84.7881L26.7726 88.0774L30.1039 91.3666L33.4352 94.6559L36.7665 97.9452L40.0978 101.234L43.4291 104.524L46.7604 107.813L50.0917 111.102L53.423 114.391L56.7543 117.681L60.0856 120.97L63.4169 124.259L66.7482 127.549L70.0795 130.838L73.4108 134.127L76.7421 137.416L80.0734 140.706C80.0734 140.706 80.0008 140.693 79.96 140.685L13.38 74.9439C13.38 74.9439 13.4204 74.9298 13.4474 74.9203Z" fill="#7B9CFF"/>
<path d="M13.3802 74.9439L79.969 140.667C79.969 140.667 79.8873 140.65 79.86 140.637L13.3218 74.9719C13.3218 74.9719 13.3623 74.9578 13.3802 74.9439Z" fill="#7B9BFF"/>
<path d="M13.3216 74.972L79.8597 140.637C79.8597 140.637 79.7824 140.611 79.7416 140.602L13.2633 75C13.2633 75 13.2946 74.9814 13.3216 74.972Z" fill="#7B9BFF"/>
<path d="M13.2632 74.9999L16.5806 78.2714L19.8981 81.5428L23.2246 84.8186L26.5512 88.0944L29.8734 91.3793L33.1956 94.6641L36.5178 97.949L39.8399 101.234L43.1621 104.519L46.4843 107.804L49.8065 111.089L53.1287 114.374L56.4509 117.658L59.773 120.943L63.0952 124.228L66.4174 127.513L69.744 130.789L73.0705 134.065L76.388 137.336L79.7054 140.607C79.7054 140.607 79.6234 140.568 79.5825 140.56L76.2742 137.293L72.9568 134.021L69.6393 130.75L66.3219 127.478L63.0044 124.207L59.6779 120.931L56.3513 117.655L53.0291 114.371L49.7069 111.086L46.3847 107.801L43.0626 104.516L39.7404 101.231L36.4182 97.9461L33.0916 94.6703L29.7651 91.3945L26.4476 88.1231L23.1302 84.8517L19.8127 81.5802L16.4953 78.3088L13.2183 75.0232C13.2183 75.0232 13.2497 75.0047 13.2632 74.9999Z" fill="#7B9AFF"/>
<path d="M13.2184 75.0233L16.5268 78.2903L19.8442 81.5617L23.1617 84.8332L26.4791 88.1046L29.7966 91.376L33.1231 94.6518L36.4497 97.9276L39.7719 101.212L43.094 104.497L46.4162 107.782L49.7384 111.067L53.0606 114.352L56.3828 117.637L59.7093 120.913L63.0359 124.189L66.3534 127.46L69.6708 130.731L72.9883 134.003L76.3057 137.274L79.614 140.541C79.614 140.541 79.532 140.502 79.4864 140.48L13.1827 75.0509C13.1827 75.0509 13.2049 75.028 13.2184 75.0233Z" fill="#7A99FF"/>
<path d="M13.1828 75.0509L79.4912 140.494C79.4912 140.494 79.4001 140.45 79.3545 140.428L13.147 75.0786C13.147 75.0786 13.1693 75.0556 13.1828 75.0509Z" fill="#7A98FF"/>
<path d="M13.1468 75.0785L79.3543 140.428C79.3087 140.406 79.2631 140.384 79.2219 140.353L75.9275 137.104L72.633 133.855L69.3294 130.601L66.0302 127.339L62.7218 124.071L59.4135 120.804L56.1052 117.537L52.7968 114.27L49.4885 111.003L46.1711 107.732L42.8536 104.46L39.5453 101.193L36.2369 97.9263L32.9286 94.6593L29.6203 91.3923L26.3119 88.1252L23.0127 84.8625L19.7091 81.609L16.4147 78.3598L13.1202 75.1106C13.1202 75.1106 13.1333 75.0833 13.1377 75.0742" fill="#7A97FF"/>
<path d="M13.1206 75.1106L79.2224 140.353C79.1677 140.327 79.1265 140.296 79.0762 140.261L13.1031 75.147C13.1031 75.147 13.1162 75.1197 13.1206 75.1106Z" fill="#7A97FF"/>
<path d="M13.103 75.147L79.0761 140.261C79.0214 140.234 78.9755 140.19 78.9252 140.155L13.0855 75.1834C13.0855 75.1834 13.0943 75.1652 13.103 75.147Z" fill="#7A96FF"/>
<path d="M13.0855 75.1833L78.916 140.15C78.8566 140.111 78.8015 140.062 78.7421 140.022L13.0997 75.2238C13.0997 75.2238 13.0993 75.2012 13.099 75.1786" fill="#7A95FF"/>
<path d="M13.0996 75.2238L78.7511 140.026C78.6961 139.978 78.6275 139.934 78.5725 139.885L13.1094 75.2733C13.1094 75.2733 13.1 75.2463 13.0952 75.2329" fill="#7994FF"/>
<path d="M13.1094 75.2733L16.3579 78.4781L19.6156 81.6872L22.878 84.9098L26.1495 88.1368L29.421 91.3638L32.6973 94.6043L35.9826 97.8491L39.268 101.094L42.5534 104.339L45.8387 107.584L49.1241 110.828L52.4094 114.073L55.6948 117.318L58.9802 120.563L62.2564 123.803L65.5279 127.03L68.7995 130.257L72.0619 133.48L75.3195 136.689L78.5681 139.894C78.4948 139.836 78.435 139.774 78.3661 139.707L13.1418 75.3225C13.1418 75.3225 13.1141 75.2868 13.1094 75.2733Z" fill="#7994FF"/>
<path d="M13.1418 75.3225L78.3704 139.698C78.3154 139.649 78.2695 139.605 78.2188 139.547L75.0023 136.369L71.7767 133.186L68.5373 129.986L65.2888 126.781L62.0311 123.572L58.7687 120.349L55.5063 117.127L52.2348 113.9L48.9633 110.673L45.6918 107.446L42.4202 104.219L39.1487 100.992L35.8772 97.7649L32.6148 94.5423L29.3524 91.3197L26.0948 88.1106L22.8462 84.9058L19.6068 81.7054L16.3812 78.5229L13.1647 75.3447C13.1647 75.3447 13.1418 75.3225 13.1279 75.3046" fill="#7993FF"/>
</g>
<mask id="mask2_85_6548" style="mask-type:luminance" maskUnits="userSpaceOnUse" x="13" y="25" width="71" height="51">
<path d="M13.2003 75.0371C36.4502 58.8373 59.691 42.633 82.9409 26.4332C83.3167 26.1654 83.676 26.0018 83.9871 25.9382L13.8438 74.8193C13.5326 74.8829 13.3167 74.9585 13.2003 75.0371Z" fill="white"/>
</mask>
<g mask="url(#mask2_85_6548)">
<path d="M83.9869 25.9382L13.8435 74.8193L13.83 74.824L83.9734 25.9429L83.9869 25.9382Z" fill="#85C6FF"/>
<path d="M83.9736 25.9429L13.8302 74.8241C13.8302 74.8241 13.8211 74.8197 13.8076 74.8244L17.3157 72.3853L20.8239 69.9462L24.332 67.5071L27.8402 65.068L31.3483 62.6289L34.8565 60.1898L38.3646 57.7507L41.8728 55.3116L45.3809 52.8725L48.8891 50.4334L52.3972 47.9942L55.9054 45.5551L59.4135 43.116L62.9217 40.6769L66.4298 38.2378L69.938 35.7987L73.4461 33.3596L76.9543 30.9205L80.4624 28.4814L83.9706 26.0423C83.9706 26.0423 83.9797 26.0467 83.9932 26.0419" fill="#84C5FF"/>
<path d="M83.9513 25.9432L13.817 74.8288C13.817 74.8288 13.8079 74.8244 13.7944 74.8291L83.9243 25.9527C83.9243 25.9527 83.9378 25.948 83.9513 25.9432Z" fill="#84C4FF"/>
<path d="M83.9239 25.9527L13.7897 74.8382C13.7897 74.8382 13.7806 74.8338 13.7671 74.8386L83.9013 25.9531C83.9013 25.9531 83.9148 25.9483 83.9283 25.9436" fill="#84C4FF"/>
<path d="M83.9014 25.9531L13.7672 74.8386C13.7672 74.8386 13.7581 74.8342 13.7446 74.8389L83.8745 25.9625C83.8745 25.9625 83.888 25.9578 83.9014 25.9531Z" fill="#84C3FF"/>
<path d="M83.8746 25.9625L13.7447 74.8389C13.7447 74.8389 13.7356 74.8346 13.7221 74.8393L17.2303 72.4002L20.7384 69.9611L24.2466 67.522L27.7547 65.0829L31.2629 62.6438L34.771 60.2047L38.2792 57.7656L41.7873 55.3264L45.2955 52.8873L48.8036 50.4482L52.3118 48.0091L55.8199 45.57L59.3281 43.1309L62.8362 40.6918L66.3444 38.2527L69.8525 35.8136L73.3607 33.3745L76.8688 30.9354L80.377 28.4963L83.8851 26.0572C83.8851 26.0572 83.8986 26.0525 83.9121 26.0477" fill="#84C2FF"/>
<path d="M83.8473 25.972L13.7174 74.8484C13.7174 74.8484 13.7083 74.844 13.6948 74.8488L83.8338 25.9767C83.8338 25.9767 83.8473 25.972 83.8608 25.9673" fill="#84C1FF"/>
<path d="M83.8341 25.9767L13.7042 74.8531C13.7042 74.8531 13.6951 74.8487 13.6816 74.8534L83.8071 25.9861C83.8071 25.9861 83.8206 25.9814 83.8341 25.9767Z" fill="#83C1FF"/>
<path d="M83.8067 25.9861L13.6812 74.8535C13.6812 74.8535 13.6721 74.8491 13.6586 74.8538L83.7797 25.9956C83.7797 25.9956 83.7932 25.9909 83.8067 25.9861Z" fill="#83C0FF"/>
<path d="M83.7799 25.9956L13.6544 74.8629C13.6544 74.8629 13.6453 74.8585 13.6318 74.8633L17.1399 72.4242L20.6481 69.9851L24.1562 67.546L27.6644 65.1069L31.1725 62.6677L34.6807 60.2286L38.1888 57.7895L41.697 55.3504L45.2051 52.9113L48.7133 50.4722L52.2214 48.0331L55.7296 45.594L59.2377 43.1549L62.7459 40.7158L66.254 38.2767L69.7622 35.8376L73.2703 33.3985L76.7785 30.9594L80.2866 28.5203L83.7948 26.0812C83.7948 26.0812 83.8083 26.0764 83.8218 26.0717" fill="#83BFFF"/>
<path d="M83.7529 26.005L80.2447 28.4441L76.7366 30.8832L73.2284 33.3224L69.7203 35.7615L66.2121 38.2006L62.704 40.6397L59.1958 43.0788L55.6877 45.5179L52.1795 47.957L48.6714 50.3961L45.1632 52.8352L41.6551 55.2743L38.1469 57.7134L34.6388 60.1525L31.1306 62.5916L27.6224 65.0307L24.1143 67.4698L20.6061 69.9089L17.098 72.348L13.5898 74.7871C13.5898 74.7871 13.5807 74.7828 13.5672 74.7875L83.7259 26.0145C83.7259 26.0145 83.7394 26.0098 83.7529 26.005Z" fill="#83BEFF"/>
<path d="M83.7258 26.0145L13.6182 74.868C13.6182 74.868 13.6091 74.8637 13.5956 74.8684L83.6988 26.024C83.6988 26.024 83.7123 26.0193 83.7258 26.0145Z" fill="#83BDFF"/>
<path d="M83.6991 26.024L13.6006 74.8818C13.6006 74.8818 13.5915 74.8775 13.578 74.8822L17.0862 72.4431L20.5943 70.004L24.1025 67.5649L27.6106 65.1258L31.1188 62.6867L34.6269 60.2476L38.1351 57.8084L41.6432 55.3693L45.1514 52.9302L48.6595 50.4911L52.1677 48.052L55.6758 45.6129L59.184 43.1738L62.6921 40.7347L66.2003 38.2956L69.7084 35.8565L73.2166 33.4174L76.7247 30.9783L80.2329 28.5392L83.7319 26.0957C83.7319 26.0957 83.7454 26.091 83.7589 26.0862" fill="#82BDFF"/>
<path d="M83.672 26.0334L13.5778 74.8822C13.5778 74.8822 13.5687 74.8778 13.5643 74.8869L83.645 26.0429C83.645 26.0429 83.6585 26.0382 83.672 26.0334Z" fill="#82BCFF"/>
<path d="M83.6448 26.0429L13.5642 74.8869C13.5642 74.8869 13.5642 74.8869 13.5507 74.8916L83.6178 26.0523C83.6178 26.0523 83.6313 26.0476 83.6448 26.0429Z" fill="#82BBFF"/>
<path d="M83.6179 26.0523L13.5373 74.8964C13.5373 74.8964 13.5373 74.8964 13.5238 74.9011L83.5909 26.0618C83.5909 26.0618 83.6044 26.0571 83.6179 26.0523Z" fill="#82BAFF"/>
<path d="M83.5912 26.0618L13.5241 74.9011C13.5241 74.9011 13.5241 74.9011 13.5106 74.9058L83.5642 26.0713C83.5642 26.0713 83.5777 26.0665 83.5912 26.0618Z" fill="#82BAFF"/>
<path d="M83.5639 26.0712L13.5011 74.9014C13.5011 74.9014 13.5011 74.9014 13.4876 74.9062L83.546 26.085C83.546 26.085 83.5595 26.0803 83.573 26.0756" fill="#82B9FF"/>
<path d="M83.5463 26.0851L80.0473 28.5286L76.5482 30.972L73.0492 33.4155L69.5502 35.859L66.0511 38.3025L62.5521 40.746L59.0531 43.1894L55.554 45.6329L52.055 48.0764L48.556 50.5199L45.0569 52.9633L41.5579 55.4068L38.0589 57.8503L34.5598 60.2938L31.0608 62.7373L27.5618 65.1807L24.0627 67.6242L20.5637 70.0677L17.0646 72.5112L13.5656 74.9546C13.5656 74.9546 13.5656 74.9546 13.5521 74.9594L17.0512 72.5159L20.5502 70.0724L24.0492 67.6289L27.5483 65.1855L31.0473 62.742L34.5463 60.2985L38.0454 57.855L41.5444 55.4116L45.0434 52.9681L48.5425 50.5246L52.0415 48.0811L55.5405 45.6376L59.0396 43.1942L62.5386 40.7507L66.0376 38.3072L69.5367 35.8637L73.0357 33.4202L76.5347 30.9768L80.0338 28.5333L83.5328 26.0898C83.5328 26.0898 83.5507 26.076 83.5598 26.0804" fill="#81B8FF"/>
<path d="M83.5146 26.1036L80.0155 28.5471L76.5165 30.9906L73.0175 33.4341L69.5184 35.8776L66.0194 38.321L62.5203 40.7645L59.0213 43.208L55.5223 45.6515L52.0232 48.0949L48.5242 50.5384L45.0252 52.9819L41.5261 55.4254L38.0271 57.8688L34.5281 60.3123L31.029 62.7558L27.53 65.1993L24.031 67.6428L20.5319 70.0862L17.0329 72.5297L13.5339 74.9732C13.5339 74.9732 13.5339 74.9732 13.5204 74.9779L83.4876 26.1131C83.4876 26.1131 83.5054 26.0993 83.5146 26.1036Z" fill="#81B7FF"/>
<path d="M83.4879 26.1131L13.4474 74.9203C13.4474 74.9203 13.4474 74.9203 13.4339 74.9251L16.933 72.4816L20.432 70.0381L23.931 67.5946L27.4301 65.1512L30.9291 62.7077L34.4281 60.2642L37.9272 57.8207L41.4262 55.3772L44.9252 52.9338L48.4243 50.4903L51.9233 48.0468L55.4223 45.6033L58.9214 43.1599L62.4204 40.7164L65.9195 38.2729L69.4185 35.8294L72.9175 33.3859L76.4166 30.9425L79.9156 28.499L83.4102 26.0646C83.4102 26.0646 83.4281 26.0508 83.4372 26.0552" fill="#81B6FF"/>
<path d="M83.4608 26.1225L79.9662 28.5569L76.4672 31.0004L72.9681 33.4438L69.4691 35.8873L65.97 38.3308L62.471 40.7743L58.972 43.2177L55.4729 45.6612L51.9739 48.1047L48.4749 50.5482L44.9758 52.9917L41.4768 55.4351L37.9778 57.8786L34.4787 60.3221L30.9797 62.7656L27.4807 65.209L23.9816 67.6525L20.4826 70.096L16.9836 72.5395L13.4845 74.983C13.4845 74.983 13.4845 74.983 13.471 74.9877L83.4295 26.1411C83.4295 26.1411 83.4473 26.1272 83.4608 26.1225Z" fill="#81B6FF"/>
<path d="M83.4292 26.1411L13.4201 74.9298C13.4201 74.9298 13.4201 74.9298 13.4066 74.9345L16.9012 72.5001L20.4003 70.0567L23.8993 67.6132L27.3983 65.1697L30.8974 62.7262L34.3964 60.2828L37.8954 57.8393L41.3945 55.3958L44.8935 52.9523L48.3925 50.5088L51.8916 48.0654L55.3906 45.6219L58.8896 43.1784L62.3887 40.7349L65.8877 38.2914L69.3867 35.848L72.8858 33.4045L76.3804 30.9701L79.8751 28.5357L83.3697 26.1014C83.3697 26.1014 83.3876 26.0875 83.4011 26.0828" fill="#81B5FF"/>
<path d="M83.4022 26.1505L79.9076 28.5849L76.4129 31.0193L72.9183 33.4536L69.4193 35.8971L65.9202 38.3406L62.4212 40.7841L58.9221 43.2276L55.4231 45.671L51.9241 48.1145L48.425 50.558L44.926 53.0015L41.427 55.4449L37.9279 57.8884L34.4289 60.3319L30.9299 62.7754L27.4308 65.2189L23.9318 67.6623L20.4328 70.1058L16.9337 72.5493L13.4391 74.9837C13.4391 74.9837 13.4391 74.9837 13.4256 74.9884L83.3709 26.1691C83.3709 26.1691 83.3888 26.1552 83.4022 26.1505Z" fill="#81B4FF"/>
<path d="M83.3712 26.1691L13.3799 74.944C13.3799 74.944 13.3799 74.944 13.3664 74.9487L83.3398 26.1876C83.3398 26.1876 83.3577 26.1738 83.3712 26.1691Z" fill="#80B3FF"/>
<path d="M83.3396 26.1877L13.3662 74.9487C13.3662 74.9487 13.3663 74.9487 13.3528 74.9535L83.3126 26.1971C83.3126 26.1971 83.3305 26.1833 83.344 26.1786" fill="#80B3FF"/>
<path d="M83.3129 26.1971L13.353 74.9534C13.353 74.9534 13.353 74.9534 13.3395 74.9582L83.2815 26.2156C83.2815 26.2156 83.2994 26.2018 83.3129 26.1971Z" fill="#80B2FF"/>
<path d="M83.2813 26.2157L13.335 74.9673C13.335 74.9673 13.335 74.9673 13.3215 74.972L83.2499 26.2342C83.2499 26.2342 83.2678 26.2204 83.2813 26.2157Z" fill="#80B1FF"/>
<path d="M83.2499 26.2342L13.3214 74.972C13.3214 74.972 13.3214 74.972 13.317 74.9811L83.2185 26.2527C83.2185 26.2527 83.2364 26.2389 83.2499 26.2342Z" fill="#80B0FF"/>
<path d="M83.2183 26.2528L13.3077 74.9767C13.3077 74.9767 13.3077 74.9767 13.3033 74.9858L83.187 26.2713C83.187 26.2713 83.2048 26.2575 83.2183 26.2528Z" fill="#7FB0FF"/>
<path d="M83.1872 26.2713L13.2945 74.9814C13.2945 74.9814 13.2945 74.9814 13.2901 74.9905L83.1559 26.2898C83.1559 26.2898 83.1737 26.276 83.1872 26.2713Z" fill="#7FAFFF"/>
<path d="M83.1557 26.2899L13.2808 74.9862C13.2808 74.9862 13.2808 74.9862 13.2764 74.9953L83.1243 26.3084C83.1243 26.3084 83.1422 26.2946 83.1557 26.2899Z" fill="#7FAEFF"/>
<path d="M83.1246 26.3084L13.2632 75C13.2632 75 13.2632 75 13.2588 75.0091L16.7491 72.5838L20.2438 70.1495L23.7384 67.7151L27.2331 65.2807L30.7277 62.8463L34.2224 60.412L37.717 57.9776L41.2117 55.5432L44.7063 53.1088L48.201 50.6744L51.6957 48.2401L55.1903 45.8057L58.685 43.3713L62.1796 40.9369L65.6743 38.5025L69.1689 36.0682L72.6636 33.6338L76.1539 31.2085L79.635 28.7789L83.1162 26.3492C83.1162 26.3492 83.134 26.3354 83.1475 26.3307" fill="#7FADFF"/>
<path d="M83.0886 26.336L13.2495 75.0047C13.2495 75.0047 13.2495 75.0047 13.2451 75.0138L83.0572 26.3546C83.0572 26.3546 83.0751 26.3408 83.0886 26.336Z" fill="#7FACFF"/>
<path d="M83.0572 26.3546L13.2451 75.0139C13.2451 75.0139 13.2451 75.0139 13.2407 75.023L83.0258 26.3732C83.0258 26.3732 83.0437 26.3594 83.0572 26.3546Z" fill="#7FACFF"/>
<path d="M83.0261 26.3732L79.5449 28.8028L76.0638 31.2325L72.5826 33.6621L69.0923 36.0874L65.5977 38.5218L62.103 40.9562L58.6084 43.3905L55.1137 45.8249L51.6191 48.2593L48.1244 50.6937L44.6298 53.128L41.1351 55.5624L37.6405 57.9968L34.1458 60.4312L30.6512 62.8656L27.1565 65.2999L23.6618 67.7343L20.1716 70.1596L16.6904 72.5892L13.2319 75.0185C13.2319 75.0185 13.2319 75.0185 13.2275 75.0276L82.9903 26.4008C82.9903 26.4008 83.0082 26.387 83.0217 26.3823" fill="#7EABFF"/>
<path d="M82.9901 26.4008L13.2182 75.0233C13.2182 75.0233 13.2182 75.0233 13.2138 75.0324L82.9588 26.4194C82.9588 26.4194 82.9766 26.4056 82.9945 26.3917" fill="#7EAAFF"/>
<path d="M82.9586 26.4194L13.2045 75.028L16.6856 72.5983L20.1668 70.1687L23.648 67.739L27.1382 65.3138L30.6285 62.8885L34.1232 60.4541L37.6178 58.0197L41.1125 55.5853L44.6071 53.151L48.1018 50.7166L51.5964 48.2822L55.0911 45.8478L58.5857 43.4134L62.0804 40.9791L65.5707 38.5538L69.0518 36.1241L72.533 33.6945L76.0141 31.2648L79.4909 28.8443L82.9677 26.4237C82.9677 26.4237 82.9721 26.4146 82.9856 26.4099" fill="#7EA9FF"/>
</g>
<mask id="mask3_85_6548" style="mask-type:luminance" maskUnits="userSpaceOnUse" x="43" y="68" width="69" height="67">
<path d="M110.692 127.1C112.166 131.077 112.031 134.552 110.38 134.88L43.6488 69.0107C45.2948 68.6914 49.0922 68.8216 52.1351 69.3067L110.701 127.104L110.692 127.1Z" fill="white"/>
</mask>
<g mask="url(#mask3_85_6548)">
<path d="M52.1259 69.3023L110.692 127.1C110.786 127.346 110.872 127.589 110.948 127.827L51.5544 69.2074C51.7448 69.2315 51.9443 69.26 52.1303 69.2932" fill="#85C8FF"/>
<path d="M51.5592 69.2209L110.952 127.841C111.014 128.038 111.076 128.236 111.133 128.42L51.0876 69.1516C51.2463 69.1717 51.4049 69.1918 51.5635 69.2118" fill="#85C7FF"/>
<path d="M51.0743 69.1563L111.12 128.425C111.158 128.555 111.187 128.681 111.23 128.803L50.757 69.1161C50.8613 69.1325 50.97 69.1398 51.0743 69.1563Z" fill="#85C6FF"/>
<path d="M50.7572 69.1161L111.23 128.803C111.254 128.892 111.274 128.992 111.307 129.086L50.5216 69.0927C50.6077 69.1004 50.6802 69.1128 50.7663 69.1205" fill="#84C5FF"/>
<path d="M50.5215 69.0927L111.307 129.086C111.331 129.176 111.346 129.261 111.37 129.351L50.295 69.0737C50.372 69.077 50.4446 69.0894 50.5215 69.0927Z" fill="#84C4FF"/>
<path d="M50.2904 69.0602L111.365 129.338C111.385 129.414 111.395 129.486 111.414 129.563L50.0865 69.0408C50.15 69.0489 50.2134 69.0569 50.2813 69.0558" fill="#84C4FF"/>
<path d="M50.0954 69.0452L111.423 129.567C111.433 129.639 111.457 129.707 111.467 129.779L49.9141 69.0254C49.9776 69.0335 50.0411 69.0415 50.0954 69.0452Z" fill="#84C3FF"/>
<path d="M49.9142 69.0254L111.467 129.779C111.482 129.842 111.492 129.914 111.506 129.977L49.733 69.0057C49.7965 69.0137 49.8508 69.0174 49.9142 69.0254Z" fill="#84C2FF"/>
<path d="M49.7237 69.0013L111.497 129.972C111.497 129.972 111.517 130.094 111.532 130.157L49.5606 68.9903C49.615 68.994 49.6693 68.9977 49.7237 69.0013Z" fill="#84C1FF"/>
<path d="M49.5611 68.9903L111.532 130.157C111.532 130.157 111.552 130.279 111.562 130.328L49.398 68.9793C49.4524 68.983 49.5067 68.9867 49.5611 68.9903Z" fill="#83C1FF"/>
<path d="M49.398 68.9794L111.562 130.328C111.562 130.328 111.586 130.441 111.592 130.499L49.2393 68.9593C49.2393 68.9593 49.348 68.9666 49.4024 68.9703" fill="#83C0FF"/>
<path d="M49.2346 68.9683L111.587 130.508C111.587 130.508 111.602 130.616 111.612 130.666L49.085 68.9526C49.085 68.9526 49.1846 68.9556 49.2346 68.9683Z" fill="#83BFFF"/>
<path d="M49.0851 68.9526L111.612 130.666C111.612 130.666 111.627 130.774 111.628 130.819L48.9312 68.946C48.9312 68.946 49.0308 68.949 49.0808 68.9617" fill="#83BEFF"/>
<path d="M48.945 68.9413L111.642 130.815C111.642 130.815 111.657 130.923 111.658 130.968L48.7955 68.9256C48.7955 68.9256 48.895 68.9285 48.945 68.9413Z" fill="#83BDFF"/>
<path d="M48.7909 68.9347L111.653 130.977C111.653 130.977 111.664 131.072 111.664 131.117L48.6505 68.9233C48.6505 68.9233 48.7456 68.9354 48.7909 68.9347Z" fill="#82BDFF"/>
<path d="M48.6507 68.9233L111.665 131.117C111.665 131.117 111.675 131.211 111.676 131.256L48.5103 68.912C48.5103 68.912 48.6055 68.924 48.6507 68.9233Z" fill="#82BCFF"/>
<path d="M48.5101 68.9119L111.676 131.256C111.676 131.256 111.686 131.351 111.687 131.396L48.3697 68.9006C48.3697 68.9006 48.4649 68.9127 48.5101 68.9119Z" fill="#82BBFF"/>
<path d="M48.3696 68.9006L111.687 131.396C111.687 131.396 111.688 131.487 111.698 131.536L48.234 68.9027C48.234 68.9027 48.32 68.9104 48.3744 68.9141" fill="#82BAFF"/>
<path d="M48.2342 68.9027L111.698 131.536C111.698 131.536 111.7 131.626 111.701 131.672L48.0938 68.8914C48.0938 68.8914 48.1799 68.8991 48.2251 68.8984" fill="#82BAFF"/>
<path d="M48.0938 68.8914L111.701 131.672C111.701 131.672 111.702 131.762 111.707 131.798L47.9625 68.8844C47.9625 68.8844 48.0485 68.8921 48.0938 68.8914Z" fill="#82B9FF"/>
<path d="M47.9624 68.8844L111.707 131.798C111.707 131.798 111.708 131.888 111.713 131.924L47.8311 68.8775C47.8311 68.8775 47.9172 68.8852 47.9624 68.8844Z" fill="#81B8FF"/>
<path d="M47.8309 68.8775L111.713 131.924C111.713 131.924 111.719 132.005 111.711 132.046L47.6905 68.8661C47.6905 68.8661 47.7766 68.8738 47.8218 68.8731" fill="#81B7FF"/>
<path d="M47.6997 68.8705L111.72 132.051C111.72 132.051 111.717 132.127 111.717 132.172L47.5684 68.8635C47.5684 68.8635 47.6545 68.8712 47.6997 68.8705Z" fill="#81B6FF"/>
<path d="M47.5685 68.8635L111.717 132.172C111.717 132.172 111.714 132.249 111.715 132.294L47.4464 68.8609C47.4464 68.8609 47.5324 68.8685 47.5777 68.8678" fill="#81B6FF"/>
<path d="M47.437 68.8565L111.705 132.29C111.705 132.29 111.702 132.367 111.703 132.412L47.3057 68.8495C47.3057 68.8495 47.3918 68.8572 47.437 68.8565Z" fill="#81B5FF"/>
<path d="M47.3057 68.8495L111.703 132.412C111.703 132.412 111.699 132.489 111.691 132.53L47.17 68.8517C47.17 68.8517 47.2561 68.8593 47.3013 68.8586" fill="#81B4FF"/>
<path d="M47.1792 68.8561L111.7 132.534C111.7 132.534 111.697 132.611 111.689 132.652L47.0479 68.8491C47.0479 68.8491 47.134 68.8568 47.1792 68.8561Z" fill="#80B3FF"/>
<path d="M47.048 68.8491L111.689 132.652C111.689 132.652 111.685 132.728 111.677 132.769L46.9215 68.8556C46.9215 68.8556 47.0075 68.8632 47.0528 68.8625" fill="#80B3FF"/>
<path d="M46.9165 68.8421L111.672 132.756C111.672 132.756 111.669 132.832 111.66 132.873L46.7808 68.8442C46.7808 68.8442 46.8713 68.8428 46.9121 68.8512" fill="#80B2FF"/>
<path d="M46.7944 68.8395L111.674 132.869C111.674 132.869 111.661 132.941 111.653 132.982L46.6588 68.8416C46.6588 68.8416 46.7492 68.8402 46.7901 68.8486" fill="#80B1FF"/>
<path d="M46.6589 68.8416L111.653 132.982C111.653 132.982 111.641 133.054 111.637 133.086L46.5367 68.839C46.5367 68.839 46.6271 68.8376 46.6589 68.8416Z" fill="#80B0FF"/>
<path d="M46.5366 68.839L111.637 133.086C111.637 133.086 111.624 133.158 111.62 133.19L46.4053 68.8321C46.4053 68.8321 46.4958 68.8306 46.5366 68.839Z" fill="#7FB0FF"/>
<path d="M46.4054 68.832L111.62 133.19C111.62 133.19 111.608 133.262 111.599 133.303L46.2789 68.8385C46.2789 68.8385 46.3693 68.8371 46.4146 68.8364" fill="#7FAFFF"/>
<path d="M46.2696 68.8342L111.59 133.299C111.59 133.299 111.578 133.371 111.564 133.399L46.1383 68.8272C46.1383 68.8272 46.2287 68.8258 46.2739 68.8251" fill="#7FAEFF"/>
<path d="M46.1431 68.8407L111.569 133.412C111.569 133.412 111.548 133.48 111.544 133.512L46.0118 68.8337C46.0118 68.8337 46.1023 68.8323 46.1475 68.8316" fill="#7FADFF"/>
<path d="M46.0117 68.8337L111.544 133.512C111.544 133.512 111.522 133.58 111.514 133.621L45.8761 68.8358C45.8761 68.8358 45.9665 68.8344 46.0117 68.8337Z" fill="#7FACFF"/>
<path d="M45.8763 68.8358L111.514 133.621C111.514 133.621 111.492 133.689 111.475 133.725L45.7315 68.8335C45.7315 68.8335 45.822 68.8321 45.8672 68.8314" fill="#7FACFF"/>
<path d="M45.7407 68.8379L111.484 133.729C111.484 133.729 111.453 133.793 111.445 133.834L45.6007 68.8492C45.6007 68.8492 45.6911 68.8477 45.7364 68.847" fill="#7EABFF"/>
<path d="M45.6048 68.8401L111.449 133.825C111.449 133.825 111.414 133.898 111.401 133.925L45.4601 68.8378C45.4601 68.8378 45.5505 68.8364 45.6092 68.831" fill="#7EAAFF"/>
<path d="M45.4559 68.8469L111.397 133.934C111.397 133.934 111.366 133.998 111.349 134.034L45.3067 68.8537C45.3067 68.8537 45.3972 68.8523 45.4559 68.8469Z" fill="#7EA9FF"/>
<path d="M45.3202 68.849L111.362 134.029C111.362 134.029 111.327 134.102 111.314 134.129L45.1754 68.8468C45.1754 68.8468 45.2793 68.8406 45.3246 68.8399" fill="#7EA9FF"/>
<path d="M45.1615 68.8515L111.3 134.134C111.3 134.134 111.265 134.207 111.247 134.243L45.0079 68.8675C45.0079 68.8675 45.1119 68.8613 45.1662 68.865" fill="#7EA8FF"/>
<path d="M45.008 68.8675L111.248 134.243C111.248 134.243 111.213 134.316 111.177 134.344L44.8453 68.8791C44.8453 68.8791 44.9493 68.8729 45.0036 68.8766" fill="#7EA7FF"/>
<path d="M44.85 68.87L111.181 134.335C111.181 134.335 111.124 134.408 111.097 134.44L44.6647 68.8819C44.7234 68.8764 44.7821 68.871 44.85 68.87Z" fill="#7DA6FF"/>
<path d="M44.6738 68.8863L111.106 134.444C111.106 134.444 111.053 134.508 111.013 134.545L44.4977 68.9026C44.4977 68.9026 44.6151 68.8917 44.6738 68.8863Z" fill="#7DA5FF"/>
<path d="M44.4978 68.9025L111.013 134.545C111.013 134.545 110.951 134.605 110.915 134.632L44.3351 68.9141C44.3351 68.9141 44.4434 68.8989 44.5021 68.8934" fill="#7DA5FF"/>
<path d="M44.3259 68.9098L110.906 134.628C110.906 134.628 110.838 134.674 110.803 134.702L44.1588 68.9305C44.1588 68.9305 44.2628 68.9243 44.3124 68.9145" fill="#7DA4FF"/>
<path d="M44.1677 68.9348L110.812 134.706C110.812 134.706 110.749 134.743 110.717 134.762L44.0367 68.9504C44.0367 68.9504 44.1315 68.9399 44.1768 68.9392" fill="#7DA3FF"/>
<path d="M44.0368 68.9504L110.717 134.762C110.717 134.762 110.655 134.799 110.614 134.813L43.9015 68.9751C43.9015 68.9751 43.9872 68.9602 44.0324 68.9595" fill="#7DA2FF"/>
<path d="M43.9058 68.966L110.619 134.804C110.619 134.804 110.551 134.828 110.524 134.837L43.7975 68.9812C43.7975 68.9812 43.8697 68.9711 43.9193 68.9613" fill="#7CA2FF"/>
<path d="M43.7842 68.9859L110.511 134.842C110.511 134.842 110.443 134.866 110.407 134.871L43.6759 69.0012C43.6759 69.0012 43.7481 68.991 43.7886 68.9769" fill="#7CA1FF"/>
<path d="M43.6759 69.0012L110.407 134.871C110.407 134.871 110.385 134.871 110.38 134.88L43.649 69.0107C43.649 69.0107 43.6716 69.0103 43.6759 69.0012Z" fill="#7CA0FF"/>
</g>
<path d="M113.674 26.4124C112.767 57.0821 111.631 95.3368 110.688 127.109C92.5289 109.191 70.2805 87.2289 52.1216 69.3115L113.674 26.4124Z" fill="#88D7FF"/>
<path d="M110.38 134.88L80.5844 140.693L13.8439 74.8193L43.649 69.0107L110.38 134.88Z" fill="#7EAAFF"/>
<path d="M43.6489 69.0107L13.8439 74.8193L83.9872 25.9382L113.779 20.1343L43.6489 69.0107Z" fill="#87D2FF"/>
<mask id="mask4_85_6548" style="mask-type:luminance" maskUnits="userSpaceOnUse" x="43" y="20" width="72" height="50">
<path d="M52.1262 69.3024C49.0833 68.8172 45.2859 68.687 43.6398 69.0063L113.779 20.1343C115.425 19.815 115.374 22.6244 113.674 26.4124L52.1262 69.3024Z" fill="white"/>
</mask>
<g mask="url(#mask4_85_6548)">
<path d="M113.674 26.4125L52.1261 69.3024C52.1261 69.3024 52.1078 69.2937 52.0987 69.2893L113.691 26.3761C113.691 26.3761 113.683 26.3943 113.674 26.4125Z" fill="#85C8FF"/>
<path d="M113.691 26.376L52.1035 69.3027C52.1035 69.3027 52.0762 69.2896 52.0627 69.2944L113.713 26.3305C113.713 26.3305 113.696 26.3669 113.691 26.376Z" fill="#85C8FF"/>
<path d="M113.713 26.3305L52.0626 69.2944C52.0626 69.2944 52.0353 69.2812 52.0218 69.286L113.739 26.2759C113.739 26.2759 113.722 26.3123 113.718 26.3214" fill="#85C9FF"/>
<path d="M113.74 26.276L52.031 69.2904C52.031 69.2904 52.0036 69.2772 51.9901 69.282L113.761 26.2305C113.761 26.2305 113.748 26.2578 113.74 26.276Z" fill="#85CAFF"/>
<path d="M113.761 26.2305L51.99 69.282C51.99 69.282 51.9627 69.2688 51.9492 69.2736L113.774 26.1806C113.774 26.1806 113.761 26.2079 113.752 26.2261" fill="#86CBFF"/>
<path d="M113.774 26.1806L51.9403 69.2692C51.9403 69.2692 51.9129 69.2561 51.8995 69.2608L113.796 26.1351C113.796 26.1351 113.783 26.1624 113.774 26.1806Z" fill="#86CBFF"/>
<path d="M113.796 26.1351L51.9038 69.2743C51.9038 69.2743 51.8764 69.2612 51.8629 69.2659L113.818 26.0896C113.818 26.0896 113.805 26.1169 113.796 26.1351Z" fill="#86CCFF"/>
<path d="M113.818 26.0896L51.8633 69.2659C51.8633 69.2659 51.836 69.2528 51.8225 69.2575L113.845 26.035C113.845 26.035 113.831 26.0623 113.823 26.0805" fill="#86CDFF"/>
<path d="M113.844 26.035L51.8224 69.2575C51.8224 69.2575 51.7951 69.2444 51.7816 69.2491L113.866 25.9895C113.866 25.9895 113.853 26.0168 113.844 26.035Z" fill="#86CEFF"/>
<path d="M113.866 25.9895L51.7908 69.2535C51.7908 69.2535 51.7634 69.2403 51.7499 69.2451L113.879 25.9396C113.879 25.9396 113.866 25.9669 113.857 25.9851" fill="#87CFFF"/>
<path d="M113.879 25.9396L51.7498 69.2451C51.7498 69.2451 51.7225 69.2319 51.709 69.2367L113.901 25.8941C113.901 25.8941 113.888 25.9214 113.879 25.9396Z" fill="#87CFFF"/>
<path d="M113.901 25.8941L51.7089 69.2367C51.7089 69.2367 51.6815 69.2236 51.6681 69.2283L113.923 25.8486C113.923 25.8486 113.91 25.8759 113.901 25.8941Z" fill="#87D0FF"/>
<path d="M113.923 25.8486L51.6636 69.2374C51.6636 69.2374 51.6362 69.2243 51.6227 69.229L113.945 25.8031C113.945 25.8031 113.931 25.8304 113.923 25.8486Z" fill="#87D1FF"/>
<path d="M113.945 25.8031L51.6227 69.229C51.6227 69.229 51.5953 69.2159 51.5818 69.2206L113.957 25.7532C113.957 25.7532 113.944 25.7805 113.935 25.7987" fill="#87D2FF"/>
<path d="M113.957 25.7533L51.591 69.225C51.591 69.225 51.5637 69.2119 51.5502 69.2166L113.979 25.7078C113.979 25.7078 113.966 25.7351 113.957 25.7533Z" fill="#87D2FF"/>
<path d="M113.979 25.7078L51.5501 69.2166C51.5501 69.2166 51.5227 69.2035 51.5092 69.2082L114.001 25.6623C114.001 25.6623 113.988 25.6896 113.979 25.7078Z" fill="#88D3FF"/>
<path d="M114.001 25.6623L51.5091 69.2082C51.5091 69.2082 51.4818 69.1951 51.4683 69.1998L114.014 25.6124C114.014 25.6124 114.001 25.6397 113.992 25.6579" fill="#88D4FF"/>
<path d="M114.014 25.6124L51.4643 69.2089C51.4643 69.2089 51.437 69.1958 51.4235 69.2005L114.036 25.5669C114.036 25.5669 114.023 25.5942 114.014 25.6124Z" fill="#88D5FF"/>
<path d="M114.036 25.5669L51.4234 69.2005C51.4234 69.2005 51.396 69.1874 51.3825 69.1921L114.058 25.5214C114.058 25.5214 114.045 25.5487 114.036 25.5669Z" fill="#88D5FF"/>
<path d="M114.058 25.5214L51.3917 69.1965C51.3917 69.1965 51.3644 69.1834 51.3509 69.1881L114.071 25.4715C114.071 25.4715 114.058 25.4988 114.049 25.517" fill="#88D6FF"/>
<path d="M114.071 25.4715L51.3508 69.1881C51.3508 69.1881 51.3234 69.175 51.3099 69.1798L114.093 25.426C114.093 25.426 114.079 25.4533 114.071 25.4715Z" fill="#88D7FF"/>
<path d="M114.093 25.426L51.3098 69.1797C51.3098 69.1797 51.2825 69.1666 51.269 69.1714L114.11 25.3896C114.11 25.3896 114.097 25.4169 114.088 25.4351" fill="#89D8FF"/>
<path d="M114.11 25.3896L51.2645 69.1805C51.2645 69.1805 51.2372 69.1673 51.2237 69.1721L114.123 25.3398C114.123 25.3398 114.11 25.3671 114.101 25.3853" fill="#89D9FF"/>
<path d="M114.123 25.3398L51.2236 69.1721C51.2236 69.1721 51.1962 69.159 51.1828 69.1637L114.145 25.2943C114.145 25.2943 114.131 25.3216 114.123 25.3398Z" fill="#89D9FF"/>
<path d="M114.145 25.2943L51.183 69.1637C51.183 69.1637 51.1513 69.1596 51.1287 69.16L114.162 25.2353C114.162 25.2353 114.144 25.2717 114.136 25.2899" fill="#89DAFF"/>
<path d="M114.162 25.2353L51.1377 69.1644C51.1377 69.1644 51.106 69.1603 51.0834 69.1607L114.188 25.1807C114.188 25.1807 114.171 25.2171 114.162 25.2353Z" fill="#89DBFF"/>
<path d="M114.188 25.1807L51.088 69.1516C51.088 69.1516 51.0563 69.1476 51.0337 69.1479L114.206 25.1217C114.206 25.1217 114.188 25.1581 114.179 25.1763" fill="#89DCFF"/>
<path d="M114.205 25.1218L51.0334 69.148C51.0334 69.148 51.0017 69.144 50.9791 69.1443L114.232 25.0672C114.232 25.0672 114.214 25.1036 114.205 25.1218Z" fill="#8ADCFF"/>
<path d="M114.232 25.0671L50.9793 69.1443C50.9793 69.1443 50.9476 69.1403 50.925 69.1406L114.249 25.0082C114.249 25.0082 114.232 25.0446 114.223 25.0628" fill="#8ADDFF"/>
<path d="M114.249 25.0082L50.9384 69.1359C50.9384 69.1359 50.9067 69.1319 50.8841 69.1322L114.275 24.9536C114.275 24.9536 114.258 24.99 114.249 25.0082Z" fill="#8ADEFF"/>
<path d="M114.275 24.9536L50.8838 69.1322C50.8838 69.1322 50.8521 69.1282 50.8295 69.1286L114.288 24.9037C114.288 24.9037 114.27 24.9401 114.262 24.9583" fill="#91E0FF"/>
<path d="M114.288 24.9037L50.8341 69.1194C50.8341 69.1194 50.8024 69.1154 50.7798 69.1158L114.305 24.8447C114.305 24.8447 114.288 24.8811 114.279 24.8993" fill="#94E1FF"/>
<path d="M114.305 24.8447L50.7796 69.1158C50.7796 69.1158 50.7478 69.1118 50.7252 69.1121L114.331 24.7901C114.331 24.7901 114.314 24.8265 114.305 24.8447Z" fill="#96E1FF"/>
<path d="M114.331 24.7901L50.7342 69.1165C50.6616 69.1041 50.5847 69.1008 50.4986 69.0931L114.413 24.5495C114.387 24.6267 114.357 24.713 114.327 24.7992" fill="#98E2FF"/>
<path d="M114.414 24.5495L50.5033 69.084C50.4081 69.0719 50.2995 69.0646 50.2043 69.0525L114.508 24.2365C114.478 24.3453 114.444 24.4407 114.405 24.5451" fill="#9AE2FF"/>
<path d="M114.508 24.2365L50.2042 69.0525C50.0864 69.0408 49.9595 69.0248 49.8417 69.0131L114.62 23.8644C114.586 23.9824 114.547 24.1094 114.508 24.2365Z" fill="#9BE3FF"/>
<path d="M114.62 23.8645L49.8373 69.0222C49.4522 68.9831 49.0718 68.9574 48.6914 68.9318L114.875 22.7993C114.816 23.1299 114.732 23.4924 114.629 23.8688" fill="#9DE3FF"/>
<path d="M114.875 22.7993L48.6823 68.9274C48.551 68.9204 48.4241 68.9043 48.3019 68.9017L114.919 22.4735C114.903 22.5776 114.882 22.6908 114.865 22.795" fill="#9BE3FF"/>
<path d="M114.919 22.4735L48.3016 68.9017C48.2021 68.8988 48.0934 68.8914 47.9938 68.8885L114.951 22.2202C114.943 22.3061 114.927 22.3876 114.919 22.4735Z" fill="#9AE2FF"/>
<path d="M114.951 22.2201L47.9982 68.8794C47.8895 68.872 47.79 68.8691 47.6813 68.8618L114.97 21.9715C114.967 22.0483 114.959 22.1342 114.951 22.2201Z" fill="#98E2FF"/>
<path d="M114.97 21.9715L47.6771 68.8709C47.5685 68.8635 47.4463 68.8609 47.3376 68.8536L114.984 21.7094C114.981 21.7862 114.982 21.8765 114.975 21.9624" fill="#96E1FF"/>
<path d="M114.984 21.7094L47.3468 68.858C47.1929 68.8514 47.0347 68.8539 46.8807 68.8473L114.975 21.3799C114.981 21.4837 114.982 21.5966 114.984 21.7094Z" fill="#94E1FF"/>
<path d="M114.974 21.3799L46.8714 68.8429C46.2831 68.8295 45.7313 68.8336 45.2294 68.8505L114.697 20.4405C114.85 20.6594 114.945 20.974 114.974 21.3799Z" fill="#91E0FF"/>
<path d="M114.697 20.4405L45.2388 68.8549C45.0309 68.8671 44.8273 68.8703 44.6377 68.8914L114.468 20.2183C114.554 20.2712 114.642 20.3466 114.697 20.4405Z" fill="#8ADEFF"/>
<path d="M114.468 20.2184L44.6286 68.887C44.6286 68.887 44.5381 68.8885 44.4976 68.9026L114.395 20.1834C114.395 20.1834 114.44 20.2053 114.459 20.214" fill="#8ADDFF"/>
<path d="M114.395 20.1834L44.502 68.8935C44.502 68.8935 44.4794 68.8939 44.4659 68.8986L114.386 20.179C114.386 20.179 114.395 20.1834 114.404 20.1878" fill="#8ADCFF"/>
<path d="M114.386 20.179L44.4659 68.8986C44.4659 68.8986 44.4433 68.899 44.4298 68.9037L114.367 20.1703C114.367 20.1703 114.377 20.1746 114.386 20.179Z" fill="#89DCFF"/>
<path d="M114.367 20.1703L44.4298 68.9037C44.4298 68.9037 44.4072 68.904 44.3937 68.9088L114.349 20.1615C114.349 20.1615 114.358 20.1659 114.367 20.1703Z" fill="#89DBFF"/>
<path d="M114.349 20.1615L44.3937 68.9088C44.3937 68.9088 44.3711 68.9091 44.3576 68.9138L114.331 20.1528C114.331 20.1528 114.34 20.1571 114.349 20.1615Z" fill="#89DAFF"/>
<path d="M114.331 20.1528L44.3708 68.9091C44.3708 68.9091 44.3482 68.9095 44.3347 68.9142L114.312 20.144C114.312 20.144 114.322 20.1484 114.331 20.1528Z" fill="#89D9FF"/>
<path d="M114.312 20.144L44.3347 68.9142C44.3347 68.9142 44.3121 68.9146 44.2986 68.9193L114.294 20.1353C114.294 20.1353 114.303 20.1397 114.312 20.144Z" fill="#89D9FF"/>
<path d="M114.294 20.1353L44.2986 68.9193C44.2986 68.9193 44.276 68.9196 44.2625 68.9244L114.272 20.1356C114.272 20.1356 114.281 20.14 114.29 20.1444" fill="#89D8FF"/>
<path d="M114.272 20.1356L44.2625 68.9244C44.2625 68.9244 44.2398 68.9247 44.2263 68.9294L114.249 20.136C114.249 20.136 114.258 20.1404 114.267 20.1447" fill="#88D7FF"/>
<path d="M114.249 20.136L44.2307 68.9203C44.2307 68.9203 44.2081 68.9207 44.1946 68.9254L114.231 20.1272C114.231 20.1272 114.24 20.1316 114.249 20.136Z" fill="#88D6FF"/>
<path d="M114.231 20.1272L44.2039 68.9298C44.2039 68.9298 44.1813 68.9302 44.1678 68.9349L114.208 20.1276C114.208 20.1276 114.217 20.132 114.226 20.1363" fill="#88D5FF"/>
<path d="M114.208 20.1276L44.1678 68.9349C44.1678 68.9349 44.1452 68.9352 44.1317 68.94L114.19 20.1188C114.19 20.1188 114.199 20.1232 114.208 20.1276Z" fill="#88D5FF"/>
<path d="M114.19 20.1188L44.145 68.9352C44.145 68.9352 44.1224 68.9356 44.118 68.9447L114.167 20.1192C114.167 20.1192 114.176 20.1235 114.185 20.1279" fill="#88D4FF"/>
<path d="M114.167 20.1192L44.1089 68.9403C44.1089 68.9403 44.0863 68.9406 44.0819 68.9497L114.149 20.1104C114.149 20.1104 114.158 20.1148 114.167 20.1192Z" fill="#88D3FF"/>
<path d="M114.149 20.1104L44.0864 68.9406C44.0864 68.9406 44.0638 68.941 44.0594 68.9501L114.127 20.1108C114.127 20.1108 114.136 20.1152 114.145 20.1195" fill="#87D2FF"/>
<path d="M114.127 20.1108L44.0503 68.9457C44.0503 68.9457 44.0277 68.9461 44.0233 68.9552L114.104 20.1111C114.104 20.1111 114.113 20.1155 114.122 20.1199" fill="#87D2FF"/>
<path d="M114.104 20.1111L44.0235 68.9552C44.0235 68.9552 44.0009 68.9555 43.9965 68.9646L114.086 20.1024C114.086 20.1024 114.095 20.1068 114.104 20.1111Z" fill="#87D1FF"/>
<path d="M114.086 20.1024L43.9917 68.9512C43.9917 68.9512 43.9691 68.9515 43.9648 68.9606L114.063 20.1028C114.063 20.1028 114.072 20.1071 114.081 20.1115" fill="#87D0FF"/>
<path d="M114.063 20.1028L43.9649 68.9606C43.9649 68.9606 43.9423 68.961 43.9379 68.9701L114.041 20.1031C114.041 20.1031 114.05 20.1075 114.059 20.1119" fill="#87CFFF"/>
<path d="M114.04 20.1031L43.942 68.961C43.942 68.961 43.9193 68.9613 43.915 68.9704L114.018 20.1035C114.018 20.1035 114.027 20.1079 114.036 20.1122" fill="#87CFFF"/>
<path d="M114.018 20.1035L43.9058 68.9661C43.9058 68.9661 43.8923 68.9708 43.8788 68.9755L113.995 20.1038C113.995 20.1038 114.004 20.1082 114.013 20.1126" fill="#86CEFF"/>
<path d="M113.995 20.1038L43.8834 68.9664C43.8834 68.9664 43.8699 68.9712 43.8608 68.9668L113.973 20.1042C113.973 20.1042 113.982 20.1086 113.991 20.1129" fill="#86CDFF"/>
<path d="M113.973 20.1042L43.8565 68.9759C43.8565 68.9759 43.8474 68.9715 43.8339 68.9762L113.95 20.1046C113.95 20.1046 113.959 20.1089 113.973 20.1042Z" fill="#86CCFF"/>
<path d="M113.95 20.1045L43.8336 68.9762C43.8336 68.9762 43.8245 68.9718 43.811 68.9766L113.936 20.1092C113.936 20.1092 113.946 20.1136 113.959 20.1089" fill="#86CBFF"/>
<path d="M113.937 20.1092L43.8067 68.9857C43.8067 68.9857 43.7976 68.9813 43.7841 68.986L113.914 20.1096C113.914 20.1096 113.923 20.114 113.937 20.1092Z" fill="#86CBFF"/>
<path d="M113.914 20.1096L43.7843 68.986C43.7843 68.986 43.7752 68.9817 43.7617 68.9864L113.887 20.1191C113.887 20.1191 113.896 20.1234 113.91 20.1187" fill="#85CAFF"/>
<path d="M113.887 20.1191L43.7569 68.9955C43.7569 68.9955 43.7478 68.9911 43.7343 68.9958L113.864 20.1194C113.864 20.1194 113.873 20.1238 113.887 20.1191Z" fill="#85C9FF"/>
<path d="M113.864 20.1194L43.7252 68.9915C43.7252 68.9915 43.7161 68.9871 43.7026 68.9918L113.842 20.1198C113.842 20.1198 113.851 20.1242 113.864 20.1194Z" fill="#85C8FF"/>
<path d="M113.842 20.1198L43.6984 69.0009C43.6984 69.0009 43.6892 68.9966 43.6757 69.0013L113.819 20.1201C113.819 20.1201 113.828 20.1245 113.842 20.1198Z" fill="#85C8FF"/>
<path d="M113.819 20.1202L43.6759 69.0013C43.6759 69.0013 43.6668 68.9969 43.6533 69.0016L113.792 20.1296C113.792 20.1296 113.801 20.134 113.815 20.1293" fill="#85C7FF"/>
<path d="M113.792 20.1296L43.658 69.0151L43.6489 69.0107L113.779 20.1343L113.792 20.1296Z" fill="#85C6FF"/>
</g>
</g>
<defs>
<filter id="filter0_f_85_6548" x="-8" y="-8" width="172.455" height="182.543" filterUnits="userSpaceOnUse" color-interpolation-filters="sRGB">
<feFlood flood-opacity="0" result="BackgroundImageFix"/>
<feBlend mode="normal" in="SourceGraphic" in2="BackgroundImageFix" result="shape"/>
<feGaussianBlur stdDeviation="4" result="effect1_foregroundBlur_85_6548"/>
</filter>
<clipPath id="clip0_85_6548">
<rect width="114.866" height="127.245" fill="white" transform="matrix(0.895434 0.445195 -0.421237 0.906951 53.6006 0)"/>
</clipPath>
</defs>
</svg>
